<svg width="1024" height="1024" viewBox="0 0 1024 1024" fill="none" xmlns="http://www.w3.org/2000/svg">
  <!-- Define gradients and filters for Liquid Glass effect -->
  <defs>
    <!-- Main gradient background (orange to red) -->
    <linearGradient id="bgGradient" x1="0%" y1="0%" x2="100%" y2="100%">
      <stop offset="0%" style="stop-color:#FF7847;stop-opacity:1" />
      <stop offset="50%" style="stop-color:#FF5722;stop-opacity:1" />
      <stop offset="100%" style="stop-color:#D84315;stop-opacity:1" />
    </linearGradient>
    
    <!-- Subtle inner glow -->
    <radialGradient id="innerGlow" cx="50%" cy="40%" r="60%">
      <stop offset="0%" style="stop-color:#FFB299;stop-opacity:0.5" />
      <stop offset="100%" style="stop-color:#FFB299;stop-opacity:0" />
    </radialGradient>
    
    <!-- Specular highlight (Liquid Glass shine) -->
    <radialGradient id="specular" cx="35%" cy="30%" r="45%">
      <stop offset="0%" style="stop-color:#FFFFFF;stop-opacity:0.7" />
      <stop offset="40%" style="stop-color:#FFFFFF;stop-opacity:0.3" />
      <stop offset="100%" style="stop-color:#FFFFFF;stop-opacity:0" />
    </radialGradient>
    
    <!-- Bottom shadow gradient -->
    <radialGradient id="bottomShadow" cx="50%" cy="70%" r="50%">
      <stop offset="0%" style="stop-color:#000000;stop-opacity:0" />
      <stop offset="100%" style="stop-color:#000000;stop-opacity:0.3" />
    </radialGradient>
    
    <!-- Drop shadow for depth -->
    <filter id="dropShadow" x="-50%" y="-50%" width="200%" height="200%">
      <feGaussianBlur in="SourceAlpha" stdDeviation="12"/>
      <feOffset dx="0" dy="8" result="offsetblur"/>
      <feComponentTransfer>
        <feFuncA type="linear" slope="0.4"/>
      </feComponentTransfer>
      <feMerge>
        <feMergeNode/>
        <feMergeNode in="SourceGraphic"/>
      </feMerge>
    </filter>
    
    <!-- Soft glow for lobster -->
    <filter id="softGlow" x="-50%" y="-50%" width="200%" height="200%">
      <feGaussianBlur stdDeviation="3" result="coloredBlur"/>
      <feMerge>
        <feMergeNode in="coloredBlur"/>
        <feMergeNode in="SourceGraphic"/>
      </feMerge>
    </filter>
    
    <!-- Rounder macOS 26 Tahoe shape -->
    <clipPath id="iconShape">
      <path d="M 184 64 
               C 112 64 64 112 64 184
               L 64 840
               C 64 912 112 960 184 960
               L 840 960
               C 912 960 960 912 960 840
               L 960 184
               C 960 112 912 64 840 64
               Z" />
    </clipPath>
  </defs>
  
  <!-- Background with Liquid Glass effect -->
  <g clip-path="url(#iconShape)">
    <!-- Base gradient -->
    <rect width="1024" height="1024" fill="url(#bgGradient)"/>
    
    <!-- Inner glow layer -->
    <rect width="1024" height="1024" fill="url(#innerGlow)"/>
    
    <!-- Specular highlight (Liquid Glass shine) -->
    <ellipse cx="360" cy="300" rx="420" ry="380" fill="url(#specular)"/>
    
    <!-- Bottom shadow for depth -->
    <rect width="1024" height="1024" fill="url(#bottomShadow)"/>
  </g>
  
  <!-- Realistic lobster (🦞 emoji style) -->
  <g filter="url(#softGlow)">
    <!-- Long antennae (characteristic of lobsters) -->
    <path d="M 435 220 Q 380 160 340 100 Q 320 70 305 45" 
          stroke="#FFFFFF" stroke-width="10" stroke-linecap="round" 
          fill="none" opacity="0.94" stroke-linejoin="round"/>
    <path d="M 589 220 Q 644 160 684 100 Q 704 70 719 45" 
          stroke="#FFFFFF" stroke-width="10" stroke-linecap="round" 
          fill="none" opacity="0.94" stroke-linejoin="round"/>
    
    <!-- Antenna tips -->
    <circle cx="305" cy="45" r="8" fill="#FFFFFF" opacity="0.94"/>
    <circle cx="719" cy="45" r="8" fill="#FFFFFF" opacity="0.94"/>
    
    <!-- Head/carapace (main body shell) -->
    <ellipse cx="512" cy="320" rx="130" ry="140" fill="#FFFFFF" opacity="0.96"/>
    
    <!-- Eyes on stalks -->
    <g opacity="0.95">
      <!-- Left eye -->
      <ellipse cx="465" cy="260" rx="12" ry="18" fill="#FFFFFF"/>
      <circle cx="465" cy="250" r="14" fill="#1A1A1A"/>
      <circle cx="468" cy="247" r="6" fill="#FFFFFF" opacity="0.9"/>
      
      <!-- Right eye -->
      <ellipse cx="559" cy="260" rx="12" ry="18" fill="#FFFFFF"/>
      <circle cx="559" cy="250" r="14" fill="#1A1A1A"/>
      <circle cx="562" cy="247" r="6" fill="#FFFFFF" opacity="0.9"/>
    </g>
    
    <!-- Large claws (crusher and pincer) -->
    <!-- Left claw (crusher - larger) -->
    <g opacity="0.95">
      <!-- Claw arm -->
      <ellipse cx="300" cy="380" rx="50" ry="35" fill="#FFFFFF" transform="rotate(-25 300 380)"/>
      <ellipse cx="240" cy="420" rx="55" ry="38" fill="#FFFFFF" transform="rotate(-35 240 420)"/>
      
      <!-- Large crusher claw -->
      <ellipse cx="180" cy="470" rx="75" ry="55" fill="#FFFFFF" transform="rotate(-30 180 470)"/>
      
      <!-- Claw pincers -->
      <path d="M 130 445 Q 95 420 75 410 L 85 440 Q 105 445 125 448 Z" fill="#FFFFFF"/>
      <path d="M 130 495 Q 95 520 75 530 L 85 500 Q 105 495 125 492 Z" fill="#FFFFFF"/>
      
      <!-- Claw detail lines -->
      <ellipse cx="180" cy="465" rx="25" ry="15" fill="#FF5722" opacity="0.15" transform="rotate(-30 180 465)"/>
    </g>
    
    <!-- Right claw (pincer - slightly smaller) -->
    <g opacity="0.95">
      <!-- Claw arm -->
      <ellipse cx="724" cy="380" rx="50" ry="35" fill="#FFFFFF" transform="rotate(25 724 380)"/>
      <ellipse cx="784" cy="420" rx="55" ry="38" fill="#FFFFFF" transform="rotate(35 784 420)"/>
      
      <!-- Pincer claw -->
      <ellipse cx="844" cy="470" rx="70" ry="50" fill="#FFFFFF" transform="rotate(30 844 470)"/>
      
      <!-- Claw pincers -->
      <path d="M 894 445 Q 929 420 949 410 L 939 440 Q 919 445 899 448 Z" fill="#FFFFFF"/>
      <path d="M 894 495 Q 929 520 949 530 L 939 500 Q 919 495 899 492 Z" fill="#FFFFFF"/>
      
      <!-- Claw detail lines -->
      <ellipse cx="844" cy="465" rx="22" ry="14" fill="#FF5722" opacity="0.15" transform="rotate(30 844 465)"/>
    </g>
    
    <!-- Walking legs (4 pairs) -->
    <g opacity="0.93">
      <!-- Left legs -->
      <path d="M 420 380 L 350 440 L 330 460" stroke="#FFFFFF" stroke-width="18" stroke-linecap="round" fill="none"/>
      <path d="M 430 420 L 370 470 L 355 495" stroke="#FFFFFF" stroke-width="16" stroke-linecap="round" fill="none"/>
      <path d="M 440 460 L 390 510 L 380 535" stroke="#FFFFFF" stroke-width="14" stroke-linecap="round" fill="none"/>
      <path d="M 450 500 L 410 545 L 405 570" stroke="#FFFFFF" stroke-width="12" stroke-linecap="round" fill="none"/>
      
      <!-- Right legs -->
      <path d="M 604 380 L 674 440 L 694 460" stroke="#FFFFFF" stroke-width="18" stroke-linecap="round" fill="none"/>
      <path d="M 594 420 L 654 470 L 669 495" stroke="#FFFFFF" stroke-width="16" stroke-linecap="round" fill="none"/>
      <path d="M 584 460 L 634 510 L 644 535" stroke="#FFFFFF" stroke-width="14" stroke-linecap="round" fill="none"/>
      <path d="M 574 500 L 614 545 L 619 570" stroke="#FFFFFF" stroke-width="12" stroke-linecap="round" fill="none"/>
    </g>
    
    <!-- Segmented abdomen/tail (classic lobster tail segments) -->
    <g opacity="0.94">
      <!-- Segment 1 (closest to body) -->
      <ellipse cx="512" cy="480" rx="115" ry="55" fill="#FFFFFF"/>
      <rect x="410" y="475" width="204" height="4" fill="#FF5722" opacity="0.2" rx="2"/>
      
      <!-- Segment 2 -->
      <ellipse cx="512" cy="550" rx="105" ry="50" fill="#FFFFFF"/>
      <rect x="420" y="545" width="184" height="4" fill="#FF5722" opacity="0.2" rx="2"/>
      
      <!-- Segment 3 -->
      <ellipse cx="512" cy="615" rx="95" ry="48" fill="#FFFFFF"/>
      <rect x="430" y="610" width="164" height="4" fill="#FF5722" opacity="0.2" rx="2"/>
      
      <!-- Segment 4 -->
      <ellipse cx="512" cy="675" rx="85" ry="45" fill="#FFFFFF"/>
      <rect x="440" y="670" width="144" height="4" fill="#FF5722" opacity="0.2" rx="2"/>
      
      <!-- Segment 5 (before tail fan) -->
      <ellipse cx="512" cy="730" rx="75" ry="42" fill="#FFFFFF"/>
      <rect x="450" y="725" width="124" height="4" fill="#FF5722" opacity="0.2" rx="2"/>
    </g>
    
    <!-- Tail fan (telson and uropods) -->
    <g opacity="0.92">
      <!-- Center telson -->
      <ellipse cx="512" cy="825" rx="55" ry="75" fill="#FFFFFF"/>
      
      <!-- Left uropods -->
      <ellipse cx="440" cy="825" rx="50" ry="70" fill="#FFFFFF" transform="rotate(-20 440 825)"/>
      <ellipse cx="380" cy="835" rx="42" ry="65" fill="#FFFFFF" transform="rotate(-35 380 835)"/>
      
      <!-- Right uropods -->
      <ellipse cx="584" cy="825" rx="50" ry="70" fill="#FFFFFF" transform="rotate(20 584 825)"/>
      <ellipse cx="644" cy="835" rx="42" ry="65" fill="#FFFFFF" transform="rotate(35 644 835)"/>
      
      <!-- Tail fan details -->
      <path d="M 380 835 Q 370 870 368 900" stroke="#FF5722" stroke-width="3" opacity="0.2" fill="none"/>
      <path d="M 440 825 Q 435 865 432 895" stroke="#FF5722" stroke-width="3" opacity="0.2" fill="none"/>
      <path d="M 512 825 Q 512 870 512 905" stroke="#FF5722" stroke-width="3" opacity="0.2" fill="none"/>
      <path d="M 584 825 Q 589 865 592 895" stroke="#FF5722" stroke-width="3" opacity="0.2" fill="none"/>
      <path d="M 644 835 Q 654 870 656 900" stroke="#FF5722" stroke-width="3" opacity="0.2" fill="none"/>
    </g>
  </g>
  
  <!-- Outer subtle glow for Liquid Glass depth -->
  <g clip-path="url(#iconShape)">
    <rect width="1024" height="1024" fill="none" 
          stroke="url(#specular)" stroke-width="3" opacity="0.3"/>
  </g>
</svg>
